STARTFONT 2.1
FONT -URW-ITC Bookman-Demi-I-Normal--10-100-72-72-P-61-ISO8859-1
SIZE 10 72 72
FONTBOUNDINGBOX 18 12 -4 -2

STARTPROPERTIES 22
FONTNAME_REGISTRY "-"
FOUNDRY "URW"
FAMILY_NAME "ITC Bookman"
WEIGHT_NAME "Demi"
SLANT "I"
SETWIDTH_NAME "Normal"
ADD_STYLE_NAME ""
PIXEL_SIZE 10
POINT_SIZE 100
RESOLUTION_X 72
RESOLUTION_Y 72
SPACING "P"
CHARSET_REGISTRY "ISO8859"
CHARSET_ENCODING "1"
FULL_NAME "Bookman-DemiItalic"
AVERAGE_WIDTH 61
WEIGHT 10
X_HEIGHT 6
QUAD_WIDTH 7
DEFAULT_CHAR 32
FONT_DESCENT 2
FONT_ASCENT 10
ENDPROPERTIES

CHARS 190

STARTCHAR space
ENCODING 32
SWIDTH 340 0
DWIDTH 3 0
BBX 1 1 0 0
BITMAP
00
ENDCHAR

STARTCHAR exclam
ENCODING 33
SWIDTH 320 0
DWIDTH 3 0
BBX 3 8 1 0
BITMAP
60
60
40
40
40
40
C0
C0
ENDCHAR

STARTCHAR quotedbl
ENCODING 34
SWIDTH 380 0
DWIDTH 4 0
BBX 4 3 1 5
BITMAP
D0
90
90
ENDCHAR

STARTCHAR numbersign
ENCODING 35
SWIDTH 680 0
DWIDTH 6 0
BBX 5 8 1 0
BITMAP
50
50
F8
50
F8
50
50
50
ENDCHAR

STARTCHAR dollar
ENCODING 36
SWIDTH 680 0
DWIDTH 7 0
BBX 7 11 0 -2
BITMAP
08
3C
66
60
78
1C
0C
CC
F8
20
20
ENDCHAR

STARTCHAR percent
ENCODING 37
SWIDTH 880 0
DWIDTH 9 0
BBX 8 8 1 0
BITMAP
66
94
B8
E8
17
1D
29
66
ENDCHAR

STARTCHAR ampersand
ENCODING 38
SWIDTH 980 0
DWIDTH 10 0
BBX 10 8 0 0
BITMAP
3800
6D00
6D80
7100
D900
CE00
C6C0
7B80
ENDCHAR

STARTCHAR quoteright
ENCODING 39
SWIDTH 320 0
DWIDTH 3 0
BBX 2 3 2 5
BITMAP
C0
C0
80
ENDCHAR

STARTCHAR parenleft
ENCODING 40
SWIDTH 260 0
DWIDTH 3 0
BBX 4 9 0 -1
BITMAP
30
60
40
C0
C0
C0
80
80
40
ENDCHAR

STARTCHAR parenright
ENCODING 41
SWIDTH 260 0
DWIDTH 3 0
BBX 4 9 0 -1
BITMAP
60
30
30
20
20
20
60
60
C0
ENDCHAR

STARTCHAR asterisk
ENCODING 42
SWIDTH 460 0
DWIDTH 5 0
BBX 4 4 1 4
BITMAP
A0
70
E0
50
ENDCHAR

STARTCHAR plus
ENCODING 43
SWIDTH 600 0
DWIDTH 6 0
BBX 5 5 1 1
BITMAP
20
20
F8
20
20
ENDCHAR

STARTCHAR comma
ENCODING 44
SWIDTH 340 0
DWIDTH 3 0
BBX 2 3 1 -1
BITMAP
C0
C0
80
ENDCHAR

STARTCHAR minus
ENCODING 45
SWIDTH 600 0
DWIDTH 6 0
BBX 5 1 1 3
BITMAP
F8
ENDCHAR

STARTCHAR period
ENCODING 46
SWIDTH 340 0
DWIDTH 3 0
BBX 2 2 1 0
BITMAP
C0
C0
ENDCHAR

STARTCHAR slash
ENCODING 47
SWIDTH 360 0
DWIDTH 4 0
BBX 5 9 0 -1
BITMAP
18
10
10
30
20
60
40
40
C0
ENDCHAR

STARTCHAR zero
ENCODING 48
SWIDTH 680 0
DWIDTH 7 0
BBX 6 8 1 0
BITMAP
38
6C
CC
CC
CC
CC
D8
70
ENDCHAR

STARTCHAR one
ENCODING 49
SWIDTH 680 0
DWIDTH 7 0
BBX 4 8 1 0
BITMAP
70
30
30
30
30
20
60
F0
ENDCHAR

STARTCHAR two
ENCODING 50
SWIDTH 680 0
DWIDTH 7 0
BBX 6 8 1 0
BITMAP
38
4C
4C
0C
18
30
44
F8
ENDCHAR

STARTCHAR three
ENCODING 51
SWIDTH 680 0
DWIDTH 7 0
BBX 6 8 1 0
BITMAP
38
4C
4C
38
0C
CC
CC
78
ENDCHAR

STARTCHAR four
ENCODING 52
SWIDTH 680 0
DWIDTH 7 0
BBX 6 8 1 0
BITMAP
0C
1C
28
48
D8
FC
18
3C
ENDCHAR

STARTCHAR five
ENCODING 53
SWIDTH 680 0
DWIDTH 7 0
BBX 6 8 1 0
BITMAP
7C
40
78
4C
0C
CC
D8
70
ENDCHAR

STARTCHAR six
ENCODING 54
SWIDTH 680 0
DWIDTH 7 0
BBX 6 8 1 0
BITMAP
3C
64
C0
F8
CC
CC
CC
78
ENDCHAR

STARTCHAR seven
ENCODING 55
SWIDTH 680 0
DWIDTH 7 0
BBX 6 8 1 0
BITMAP
FC
84
08
10
30
30
20
60
ENDCHAR

STARTCHAR eight
ENCODING 56
SWIDTH 680 0
DWIDTH 7 0
BBX 6 8 1 0
BITMAP
3C
64
64
78
5C
8C
CC
78
ENDCHAR

STARTCHAR nine
ENCODING 57
SWIDTH 680 0
DWIDTH 7 0
BBX 6 8 1 0
BITMAP
3C
64
C4
CC
7C
0C
C8
F0
ENDCHAR

STARTCHAR colon
ENCODING 58
SWIDTH 340 0
DWIDTH 3 0
BBX 3 6 1 0
BITMAP
40
60
00
00
C0
C0
ENDCHAR

STARTCHAR semicolon
ENCODING 59
SWIDTH 340 0
DWIDTH 3 0
BBX 3 7 1 -1
BITMAP
40
60
00
00
C0
C0
80
ENDCHAR

STARTCHAR less
ENCODING 60
SWIDTH 620 0
DWIDTH 6 0
BBX 5 5 1 0
BITMAP
08
70
C0
70
08
ENDCHAR

STARTCHAR equal
ENCODING 61
SWIDTH 600 0
DWIDTH 6 0
BBX 5 3 1 3
BITMAP
F8
00
F8
ENDCHAR

STARTCHAR greater
ENCODING 62
SWIDTH 620 0
DWIDTH 6 0
BBX 5 5 1 0
BITMAP
C0
70
18
70
80
ENDCHAR

STARTCHAR question
ENCODING 63
SWIDTH 620 0
DWIDTH 6 0
BBX 5 8 1 0
BITMAP
70
D8
D8
18
30
20
60
60
ENDCHAR

STARTCHAR at
ENCODING 64
SWIDTH 780 0
DWIDTH 8 0
BBX 7 8 1 0
BITMAP
3C
46
BA
AA
AA
BE
44
38
ENDCHAR

STARTCHAR A
ENCODING 65
SWIDTH 720 0
DWIDTH 7 0
BBX 8 8 0 0
BITMAP
0C
14
14
36
3E
66
46
EF
ENDCHAR

STARTCHAR B
ENCODING 66
SWIDTH 720 0
DWIDTH 7 0
BBX 7 8 0 0
BITMAP
7E
32
26
3E
66
66
66
FC
ENDCHAR

STARTCHAR C
ENCODING 67
SWIDTH 700 0
DWIDTH 7 0
BBX 7 8 1 0
BITMAP
3C
66
C2
C0
C0
C0
C6
78
ENDCHAR

STARTCHAR D
ENCODING 68
SWIDTH 760 0
DWIDTH 8 0
BBX 8 8 0 0
BITMAP
7E
33
23
23
63
62
66
FC
ENDCHAR

STARTCHAR E
ENCODING 69
SWIDTH 720 0
DWIDTH 7 0
BBX 8 8 0 0
BITMAP
7E
32
29
38
68
62
66
FE
ENDCHAR

STARTCHAR F
ENCODING 70
SWIDTH 660 0
DWIDTH 7 0
BBX 7 8 0 0
BITMAP
7E
32
2A
38
68
60
60
F0
ENDCHAR

STARTCHAR G
ENCODING 71
SWIDTH 760 0
DWIDTH 8 0
BBX 8 8 1 0
BITMAP
3E
66
C2
C0
CF
C4
CC
74
ENDCHAR

STARTCHAR H
ENCODING 72
SWIDTH 800 0
DWIDTH 8 0
BBX 9 8 0 0
BITMAP
7F80
3300
2300
3F00
6200
6600
6600
FF00
ENDCHAR

STARTCHAR I
ENCODING 73
SWIDTH 380 0
DWIDTH 4 0
BBX 5 8 0 0
BITMAP
78
30
20
20
60
60
60
F0
ENDCHAR

STARTCHAR J
ENCODING 74
SWIDTH 620 0
DWIDTH 6 0
BBX 7 8 0 0
BITMAP
1E
0C
0C
0C
0C
C8
98
70
ENDCHAR

STARTCHAR K
ENCODING 75
SWIDTH 780 0
DWIDTH 8 0
BBX 9 8 0 0
BITMAP
7F80
3600
2400
2C00
7C00
6600
6600
FF00
ENDCHAR

STARTCHAR L
ENCODING 76
SWIDTH 640 0
DWIDTH 6 0
BBX 7 8 0 0
BITMAP
78
30
20
20
60
62
66
FC
ENDCHAR

STARTCHAR M
ENCODING 77
SWIDTH 860 0
DWIDTH 9 0
BBX 10 8 0 0
BITMAP
73C0
3380
3500
5F00
5F00
5B00
5B00
FF00
ENDCHAR

STARTCHAR N
ENCODING 78
SWIDTH 740 0
DWIDTH 7 0
BBX 8 8 0 0
BITMAP
77
3A
3A
5A
4E
4E
4C
E4
ENDCHAR

STARTCHAR O
ENCODING 79
SWIDTH 760 0
DWIDTH 8 0
BBX 7 8 1 0
BITMAP
3C
66
C6
C6
C6
C6
CC
78
ENDCHAR

STARTCHAR P
ENCODING 80
SWIDTH 640 0
DWIDTH 6 0
BBX 7 8 0 0
BITMAP
7E
36
26
26
7C
60
60
F0
ENDCHAR

STARTCHAR Q
ENCODING 81
SWIDTH 760 0
DWIDTH 8 0
BBX 8 10 0 -2
BITMAP
1C
66
63
43
43
5E
76
BE
C4
78
ENDCHAR

STARTCHAR R
ENCODING 82
SWIDTH 740 0
DWIDTH 7 0
BBX 8 8 0 0
BITMAP
7E
32
26
3E
6C
6C
66
F7
ENDCHAR

STARTCHAR S
ENCODING 83
SWIDTH 700 0
DWIDTH 7 0
BBX 7 8 1 0
BITMAP
3E
66
62
7C
3E
86
C4
F8
ENDCHAR

STARTCHAR T
ENCODING 84
SWIDTH 700 0
DWIDTH 7 0
BBX 7 8 1 0
BITMAP
7E
DA
92
10
30
30
30
78
ENDCHAR

STARTCHAR U
ENCODING 85
SWIDTH 740 0
DWIDTH 7 0
BBX 7 8 1 0
BITMAP
F6
64
44
C4
C4
C4
C8
70
ENDCHAR

STARTCHAR V
ENCODING 86
SWIDTH 660 0
DWIDTH 7 0
BBX 7 8 1 0
BITMAP
F6
64
64
68
68
28
30
30
ENDCHAR

STARTCHAR W
ENCODING 87
SWIDTH 1000 0
DWIDTH 10 0
BBX 10 8 1 0
BITMAP
EFC0
4C80
6C80
6D00
7500
7500
7600
6600
ENDCHAR

STARTCHAR X
ENCODING 88
SWIDTH 740 0
DWIDTH 7 0
BBX 8 8 0 0
BITMAP
7F
32
1C
1C
1C
2C
66
EF
ENDCHAR

STARTCHAR Y
ENCODING 89
SWIDTH 660 0
DWIDTH 7 0
BBX 7 8 1 0
BITMAP
FE
64
6C
68
30
30
30
70
ENDCHAR

STARTCHAR Z
ENCODING 90
SWIDTH 680 0
DWIDTH 7 0
BBX 7 8 0 0
BITMAP
7E
6E
4C
18
30
72
66
FC
ENDCHAR

STARTCHAR bracketleft
ENCODING 91
SWIDTH 260 0
DWIDTH 3 0
BBX 4 9 0 -1
BITMAP
70
60
40
40
40
40
C0
C0
C0
ENDCHAR

STARTCHAR backslash
ENCODING 92
SWIDTH 580 0
DWIDTH 6 0
BBX 5 9 1 -1
BITMAP
C0
40
40
60
20
30
10
10
18
ENDCHAR

STARTCHAR bracketright
ENCODING 93
SWIDTH 260 0
DWIDTH 3 0
BBX 4 9 0 -1
BITMAP
70
20
20
20
20
60
40
40
C0
ENDCHAR

STARTCHAR asciicircum
ENCODING 94
SWIDTH 620 0
DWIDTH 6 0
BBX 5 5 1 3
BITMAP
20
70
50
50
88
ENDCHAR

STARTCHAR underscore
ENCODING 95
SWIDTH 500 0
DWIDTH 5 0
BBX 5 1 0 -1
BITMAP
F8
ENDCHAR

STARTCHAR quoteleft
ENCODING 96
SWIDTH 320 0
DWIDTH 3 0
BBX 2 3 2 5
BITMAP
40
C0
C0
ENDCHAR

STARTCHAR a
ENCODING 97
SWIDTH 680 0
DWIDTH 7 0
BBX 7 6 1 0
BITMAP
3C
4C
C8
D8
D8
6E
ENDCHAR

STARTCHAR b
ENCODING 98
SWIDTH 600 0
DWIDTH 6 0
BBX 6 9 1 0
BITMAP
E0
60
40
58
6C
CC
CC
D8
F0
ENDCHAR

STARTCHAR c
ENCODING 99
SWIDTH 560 0
DWIDTH 6 0
BBX 5 6 1 0
BITMAP
38
48
C0
C0
C8
70
ENDCHAR

STARTCHAR d
ENCODING 100
SWIDTH 680 0
DWIDTH 7 0
BBX 7 9 1 0
BITMAP
0C
0C
0C
3C
4C
C8
C8
D8
6E
ENDCHAR

STARTCHAR e
ENCODING 101
SWIDTH 560 0
DWIDTH 6 0
BBX 5 6 1 0
BITMAP
38
48
F0
C0
C8
70
ENDCHAR

STARTCHAR f
ENCODING 102
SWIDTH 420 0
DWIDTH 4 0
BBX 8 11 -1 -2
BITMAP
07
05
0C
1E
08
08
08
18
18
D0
E0
ENDCHAR

STARTCHAR g
ENCODING 103
SWIDTH 620 0
DWIDTH 6 0
BBX 6 8 0 -2
BITMAP
3C
64
64
4C
4C
7C
D8
F0
ENDCHAR

STARTCHAR h
ENCODING 104
SWIDTH 700 0
DWIDTH 7 0
BBX 6 9 1 0
BITMAP
E0
60
60
78
4C
CC
C8
C8
CC
ENDCHAR

STARTCHAR i
ENCODING 105
SWIDTH 380 0
DWIDTH 4 0
BBX 3 9 1 0
BITMAP
60
60
00
E0
C0
C0
C0
C0
60
ENDCHAR

STARTCHAR j
ENCODING 106
SWIDTH 320 0
DWIDTH 3 0
BBX 6 11 -1 -2
BITMAP
0C
0C
00
18
18
18
18
18
18
B0
E0
ENDCHAR

STARTCHAR k
ENCODING 107
SWIDTH 700 0
DWIDTH 7 0
BBX 6 9 1 0
BITMAP
E0
60
60
CC
DC
F0
F0
D0
DC
ENDCHAR

STARTCHAR l
ENCODING 108
SWIDTH 380 0
DWIDTH 4 0
BBX 3 9 1 0
BITMAP
E0
60
40
40
C0
C0
C0
C0
E0
ENDCHAR

STARTCHAR m
ENCODING 109
SWIDTH 960 0
DWIDTH 10 0
BBX 9 6 1 0
BITMAP
FF00
4900
4900
DB00
DB00
DB80
ENDCHAR

STARTCHAR n
ENCODING 110
SWIDTH 680 0
DWIDTH 7 0
BBX 6 6 1 0
BITMAP
F8
4C
4C
CC
CC
CC
ENDCHAR

STARTCHAR o
ENCODING 111
SWIDTH 600 0
DWIDTH 6 0
BBX 6 6 1 0
BITMAP
38
4C
CC
CC
D8
70
ENDCHAR

STARTCHAR p
ENCODING 112
SWIDTH 660 0
DWIDTH 7 0
BBX 7 8 0 -2
BITMAP
7C
36
36
26
64
7C
60
F0
ENDCHAR

STARTCHAR q
ENCODING 113
SWIDTH 620 0
DWIDTH 6 0
BBX 6 8 1 -2
BITMAP
3C
4C
C8
C8
D8
78
18
38
ENDCHAR

STARTCHAR r
ENCODING 114
SWIDTH 500 0
DWIDTH 5 0
BBX 5 6 1 0
BITMAP
F8
78
60
C0
C0
C0
ENDCHAR

STARTCHAR s
ENCODING 115
SWIDTH 540 0
DWIDTH 5 0
BBX 5 6 0 0
BITMAP
78
68
70
38
D8
F0
ENDCHAR

STARTCHAR t
ENCODING 116
SWIDTH 440 0
DWIDTH 4 0
BBX 4 7 1 0
BITMAP
20
F0
60
C0
C0
C0
70
ENDCHAR

STARTCHAR u
ENCODING 117
SWIDTH 680 0
DWIDTH 7 0
BBX 6 6 1 0
BITMAP
EC
4C
CC
CC
CC
7C
ENDCHAR

STARTCHAR v
ENCODING 118
SWIDTH 540 0
DWIDTH 5 0
BBX 5 6 1 0
BITMAP
E8
58
C8
C8
D8
70
ENDCHAR

STARTCHAR w
ENCODING 119
SWIDTH 860 0
DWIDTH 9 0
BBX 8 6 1 0
BITMAP
EF
4D
49
C9
D9
6E
ENDCHAR

STARTCHAR x
ENCODING 120
SWIDTH 620 0
DWIDTH 6 0
BBX 6 6 0 0
BITMAP
6C
38
30
30
38
DC
ENDCHAR

STARTCHAR y
ENCODING 121
SWIDTH 600 0
DWIDTH 6 0
BBX 6 8 0 -2
BITMAP
EC
6C
6C
4C
48
78
98
F0
ENDCHAR

STARTCHAR z
ENCODING 122
SWIDTH 560 0
DWIDTH 6 0
BBX 6 6 0 0
BITMAP
78
5C
30
60
E8
F8
ENDCHAR

STARTCHAR braceleft
ENCODING 123
SWIDTH 300 0
DWIDTH 3 0
BBX 4 9 1 -1
BITMAP
30
60
40
40
C0
40
C0
C0
C0
ENDCHAR

STARTCHAR bar
ENCODING 124
SWIDTH 620 0
DWIDTH 6 0
BBX 1 8 3 0
BITMAP
80
80
80
80
80
80
80
80
ENDCHAR

STARTCHAR braceright
ENCODING 125
SWIDTH 300 0
DWIDTH 3 0
BBX 4 9 0 -1
BITMAP
60
20
20
20
70
60
40
40
C0
ENDCHAR

STARTCHAR asciitilde
ENCODING 126
SWIDTH 620 0
DWIDTH 6 0
BBX 5 2 1 1
BITMAP
E8
B8
ENDCHAR

STARTCHAR exclamdown
ENCODING 161
SWIDTH 320 0
DWIDTH 3 0
BBX 3 8 1 -2
BITMAP
60
60
40
40
40
C0
C0
C0
ENDCHAR

STARTCHAR cent
ENCODING 162
SWIDTH 680 0
DWIDTH 7 0
BBX 5 6 2 2
BITMAP
20
70
C8
C0
70
20
ENDCHAR

STARTCHAR sterling
ENCODING 163
SWIDTH 680 0
DWIDTH 7 0
BBX 8 8 0 0
BITMAP
0E
19
1B
3C
10
F6
B2
EC
ENDCHAR

STARTCHAR currency
ENCODING 164
SWIDTH 680 0
DWIDTH 7 0
BBX 5 5 0 1
BITMAP
F8
88
88
88
F8
ENDCHAR

STARTCHAR yen
ENCODING 165
SWIDTH 680 0
DWIDTH 7 0
BBX 7 8 1 0
BITMAP
FE
64
68
EC
30
FC
20
70
ENDCHAR

STARTCHAR brokenbar
ENCODING 166
SWIDTH 620 0
DWIDTH 6 0
BBX 1 8 3 0
BITMAP
80
80
80
80
00
80
80
80
ENDCHAR

STARTCHAR section
ENCODING 167
SWIDTH 620 0
DWIDTH 6 0
BBX 6 9 0 -1
BITMAP
3C
6C
74
58
6C
74
BC
D8
70
ENDCHAR

STARTCHAR dieresis
ENCODING 168
SWIDTH 520 0
DWIDTH 5 0
BBX 4 2 2 6
BITMAP
D0
B0
ENDCHAR

STARTCHAR copyright
ENCODING 169
SWIDTH 780 0
DWIDTH 8 0
BBX 7 8 1 0
BITMAP
38
44
BA
A2
A2
BA
44
38
ENDCHAR

STARTCHAR ordfeminine
ENCODING 170
SWIDTH 440 0
DWIDTH 4 0
BBX 4 5 1 3
BITMAP
70
50
50
70
F0
ENDCHAR

STARTCHAR guillemotleft
ENCODING 171
SWIDTH 380 0
DWIDTH 4 0
BBX 4 6 1 0
BITMAP
50
A0
E0
E0
A0
50
ENDCHAR

STARTCHAR logicalnot
ENCODING 172
SWIDTH 620 0
DWIDTH 6 0
BBX 5 3 1 1
BITMAP
F8
08
08
ENDCHAR

STARTCHAR hyphen
ENCODING 173
SWIDTH 280 0
DWIDTH 3 0
BBX 3 1 1 2
BITMAP
E0
ENDCHAR

STARTCHAR registered
ENCODING 174
SWIDTH 780 0
DWIDTH 8 0
BBX 7 8 1 0
BITMAP
38
7C
AA
B2
BA
AA
44
38
ENDCHAR

STARTCHAR macron
ENCODING 175
SWIDTH 480 0
DWIDTH 5 0
BBX 4 1 2 7
BITMAP
F0
ENDCHAR

STARTCHAR degree
ENCODING 176
SWIDTH 400 0
DWIDTH 4 0
BBX 4 4 1 4
BITMAP
60
90
90
60
ENDCHAR

STARTCHAR plusminus
ENCODING 177
SWIDTH 600 0
DWIDTH 6 0
BBX 5 6 1 0
BITMAP
20
F8
20
20
20
F8
ENDCHAR

STARTCHAR twosuperior
ENCODING 178
SWIDTH 408 0
DWIDTH 4 0
BBX 4 4 -3 4
BITMAP
70
B0
40
F0
ENDCHAR

STARTCHAR threesuperior
ENCODING 179
SWIDTH 408 0
DWIDTH 4 0
BBX 4 4 -3 4
BITMAP
70
30
10
E0
ENDCHAR

STARTCHAR acute
ENCODING 180
SWIDTH 340 0
DWIDTH 3 0
BBX 2 2 2 6
BITMAP
40
C0
ENDCHAR

STARTCHAR mu
ENCODING 181
SWIDTH 680 0
DWIDTH 7 0
BBX 7 8 0 -2
BITMAP
E6
66
66
66
66
FE
C0
C0
ENDCHAR

STARTCHAR paragraph
ENCODING 182
SWIDTH 680 0
DWIDTH 7 0
BBX 7 10 1 -2
BITMAP
7E
D4
D4
D4
D4
74
1C
38
28
7C
ENDCHAR

STARTCHAR periodcentered
ENCODING 183
SWIDTH 340 0
DWIDTH 5 0
BBX 2 2 2 3
BITMAP
C0
C0
ENDCHAR

STARTCHAR cedilla
ENCODING 184
SWIDTH 360 0
DWIDTH 4 0
BBX 2 3 1 -2
BITMAP
40
40
C0
ENDCHAR

STARTCHAR onesuperior
ENCODING 185
SWIDTH 408 0
DWIDTH 4 0
BBX 3 4 -4 4
BITMAP
60
40
40
E0
ENDCHAR

STARTCHAR ordmasculine
ENCODING 186
SWIDTH 440 0
DWIDTH 4 0
BBX 4 5 0 3
BITMAP
70
50
70
00
F0
ENDCHAR

STARTCHAR guillemotright
ENCODING 187
SWIDTH 380 0
DWIDTH 4 0
BBX 4 5 1 1
BITMAP
A0
50
30
50
E0
ENDCHAR

STARTCHAR onequarter
ENCODING 188
SWIDTH 1020 0
DWIDTH 9 0
BBX 9 8 -4 0
BITMAP
6400
4C00
4800
F100
1300
2500
2780
4100
ENDCHAR

STARTCHAR onehalf
ENCODING 189
SWIDTH 1020 0
DWIDTH 9 0
BBX 9 8 -4 0
BITMAP
6400
4C00
4800
F000
1380
2580
2200
4780
ENDCHAR

STARTCHAR threequarters
ENCODING 190
SWIDTH 1020 0
DWIDTH 9 0
BBX 10 8 -3 0
BITMAP
7200
2600
3400
E880
0980
1280
13C0
2080
ENDCHAR

STARTCHAR questiondown
ENCODING 191
SWIDTH 620 0
DWIDTH 6 0
BBX 5 8 1 -2
BITMAP
30
30
00
20
60
C8
C8
70
ENDCHAR

STARTCHAR Agrave
ENCODING 192
SWIDTH 720 0
DWIDTH 7 0
BBX 8 10 0 0
BITMAP
08
04
0C
14
14
36
3E
66
46
EF
ENDCHAR

STARTCHAR Aacute
ENCODING 193
SWIDTH 720 0
DWIDTH 7 0
BBX 8 10 0 0
BITMAP
04
0C
0C
14
14
36
3E
66
46
EF
ENDCHAR

STARTCHAR Acircumflex
ENCODING 194
SWIDTH 720 0
DWIDTH 7 0
BBX 8 10 0 0
BITMAP
08
14
0C
14
14
36
3E
66
46
EF
ENDCHAR

STARTCHAR Atilde
ENCODING 195
SWIDTH 720 0
DWIDTH 7 0
BBX 8 9 0 0
BITMAP
11
2E
14
14
36
3E
66
46
EF
ENDCHAR

STARTCHAR Adieresis
ENCODING 196
SWIDTH 720 0
DWIDTH 7 0
BBX 8 10 0 0
BITMAP
1A
16
0C
14
14
36
3E
66
46
EF
ENDCHAR

STARTCHAR Aring
ENCODING 197
SWIDTH 720 0
DWIDTH 7 0
BBX 8 10 0 0
BITMAP
0E
0A
0C
14
14
36
3E
66
46
EF
ENDCHAR

STARTCHAR AE
ENCODING 198
SWIDTH 1140 0
DWIDTH 11 0
BBX 12 8 0 0
BITMAP
03F0
0310
0750
0BC0
1F40
3310
6330
E7E0
ENDCHAR

STARTCHAR Ccedilla
ENCODING 199
SWIDTH 700 0
DWIDTH 7 0
BBX 7 10 1 -2
BITMAP
3C
66
C2
C0
C0
C0
C6
78
10
30
ENDCHAR

STARTCHAR Egrave
ENCODING 200
SWIDTH 720 0
DWIDTH 7 0
BBX 8 10 0 0
BITMAP
10
08
7E
32
29
38
68
62
66
FE
ENDCHAR

STARTCHAR Eacute
ENCODING 201
SWIDTH 720 0
DWIDTH 7 0
BBX 8 10 0 0
BITMAP
04
0C
7E
32
29
38
68
62
66
FE
ENDCHAR

STARTCHAR Ecircumflex
ENCODING 202
SWIDTH 720 0
DWIDTH 7 0
BBX 8 10 0 0
BITMAP
08
14
7E
32
29
38
68
62
66
FE
ENDCHAR

STARTCHAR Edieresis
ENCODING 203
SWIDTH 720 0
DWIDTH 7 0
BBX 8 10 0 0
BITMAP
1A
16
7E
32
29
38
68
62
66
FE
ENDCHAR

STARTCHAR Igrave
ENCODING 204
SWIDTH 380 0
DWIDTH 4 0
BBX 5 10 0 0
BITMAP
20
10
78
30
20
20
60
60
60
F0
ENDCHAR

STARTCHAR Iacute
ENCODING 205
SWIDTH 380 0
DWIDTH 4 0
BBX 5 10 0 0
BITMAP
10
30
78
30
20
20
60
60
60
F0
ENDCHAR

STARTCHAR Icircumflex
ENCODING 206
SWIDTH 380 0
DWIDTH 4 0
BBX 5 10 0 0
BITMAP
20
50
78
30
20
20
60
60
60
F0
ENDCHAR

STARTCHAR Idieresis
ENCODING 207
SWIDTH 380 0
DWIDTH 4 0
BBX 5 10 0 0
BITMAP
68
58
78
30
20
20
60
60
60
F0
ENDCHAR

STARTCHAR Eth
ENCODING 208
SWIDTH 760 0
DWIDTH 8 0
BBX 8 8 0 0
BITMAP
7E
33
23
7B
63
62
66
FC
ENDCHAR

STARTCHAR Ntilde
ENCODING 209
SWIDTH 740 0
DWIDTH 7 0
BBX 8 9 0 0
BITMAP
19
77
3A
3A
5A
4E
4E
4C
E4
ENDCHAR

STARTCHAR Ograve
ENCODING 210
SWIDTH 760 0
DWIDTH 8 0
BBX 7 10 1 0
BITMAP
10
08
3C
66
C6
C6
C6
C6
CC
78
ENDCHAR

STARTCHAR Oacute
ENCODING 211
SWIDTH 760 0
DWIDTH 8 0
BBX 7 10 1 0
BITMAP
08
18
3C
66
C6
C6
C6
C6
CC
78
ENDCHAR

STARTCHAR Ocircumflex
ENCODING 212
SWIDTH 760 0
DWIDTH 8 0
BBX 7 10 1 0
BITMAP
10
28
3C
66
C6
C6
C6
C6
CC
78
ENDCHAR

STARTCHAR Otilde
ENCODING 213
SWIDTH 760 0
DWIDTH 8 0
BBX 7 9 1 0
BITMAP
3C
3C
66
C6
C6
C6
C6
CC
78
ENDCHAR

STARTCHAR Odieresis
ENCODING 214
SWIDTH 760 0
DWIDTH 8 0
BBX 7 10 1 0
BITMAP
34
2C
3C
66
C6
C6
C6
C6
CC
78
ENDCHAR

STARTCHAR multiply
ENCODING 215
SWIDTH 600 0
DWIDTH 6 0
BBX 4 4 2 2
BITMAP
90
60
60
90
ENDCHAR

STARTCHAR Oslash
ENCODING 216
SWIDTH 760 0
DWIDTH 8 0
BBX 8 8 1 0
BITMAP
3D
66
C6
CE
D6
E6
EC
F8
ENDCHAR

STARTCHAR Ugrave
ENCODING 217
SWIDTH 740 0
DWIDTH 7 0
BBX 7 10 1 0
BITMAP
10
08
F6
64
44
C4
C4
C4
C8
70
ENDCHAR

STARTCHAR Uacute
ENCODING 218
SWIDTH 740 0
DWIDTH 7 0
BBX 7 10 1 0
BITMAP
08
18
F6
64
44
C4
C4
C4
C8
70
ENDCHAR

STARTCHAR Ucircumflex
ENCODING 219
SWIDTH 740 0
DWIDTH 7 0
BBX 7 10 1 0
BITMAP
10
28
F6
64
44
C4
C4
C4
C8
70
ENDCHAR

STARTCHAR Udieresis
ENCODING 220
SWIDTH 740 0
DWIDTH 7 0
BBX 7 10 1 0
BITMAP
34
2C
F6
64
44
C4
C4
C4
C8
70
ENDCHAR

STARTCHAR Yacute
ENCODING 221
SWIDTH 660 0
DWIDTH 7 0
BBX 7 10 1 0
BITMAP
08
18
FE
64
6C
68
30
30
30
70
ENDCHAR

STARTCHAR Thorn
ENCODING 222
SWIDTH 640 0
DWIDTH 6 0
BBX 7 8 0 0
BITMAP
78
30
3E
26
66
7C
60
F0
ENDCHAR

STARTCHAR germandbls
ENCODING 223
SWIDTH 660 0
DWIDTH 7 0
BBX 9 11 -1 -2
BITMAP
0F00
1D80
1C80
3F00
1F80
1980
1980
1980
1F00
9000
E000
ENDCHAR

STARTCHAR agrave
ENCODING 224
SWIDTH 680 0
DWIDTH 7 0
BBX 7 8 1 0
BITMAP
10
08
3C
4C
C8
D8
D8
6E
ENDCHAR

STARTCHAR aacute
ENCODING 225
SWIDTH 680 0
DWIDTH 7 0
BBX 7 8 1 0
BITMAP
08
18
3C
4C
C8
D8
D8
6E
ENDCHAR

STARTCHAR acircumflex
ENCODING 226
SWIDTH 680 0
DWIDTH 7 0
BBX 7 8 1 0
BITMAP
10
28
3C
4C
C8
D8
D8
6E
ENDCHAR

STARTCHAR atilde
ENCODING 227
SWIDTH 680 0
DWIDTH 7 0
BBX 7 7 1 0
BITMAP
3C
3C
4C
C8
D8
D8
6E
ENDCHAR

STARTCHAR adieresis
ENCODING 228
SWIDTH 680 0
DWIDTH 7 0
BBX 7 8 1 0
BITMAP
34
2C
3C
4C
C8
D8
D8
6E
ENDCHAR

STARTCHAR aring
ENCODING 229
SWIDTH 680 0
DWIDTH 7 0
BBX 7 8 1 0
BITMAP
38
38
3C
4C
C8
D8
D8
6E
ENDCHAR

STARTCHAR ae
ENCODING 230
SWIDTH 880 0
DWIDTH 9 0
BBX 9 6 0 0
BITMAP
7700
4D80
7F00
D800
D900
EE00
ENDCHAR

STARTCHAR ccedilla
ENCODING 231
SWIDTH 560 0
DWIDTH 6 0
BBX 5 8 1 -2
BITMAP
38
48
C0
C0
C8
70
20
60
ENDCHAR

STARTCHAR egrave
ENCODING 232
SWIDTH 560 0
DWIDTH 6 0
BBX 5 8 1 0
BITMAP
20
10
38
48
F0
C0
C8
70
ENDCHAR

STARTCHAR eacute
ENCODING 233
SWIDTH 560 0
DWIDTH 6 0
BBX 5 8 1 0
BITMAP
10
30
38
48
F0
C0
C8
70
ENDCHAR

STARTCHAR ecircumflex
ENCODING 234
SWIDTH 560 0
DWIDTH 6 0
BBX 5 8 1 0
BITMAP
10
28
38
48
F0
C0
C8
70
ENDCHAR

STARTCHAR edieresis
ENCODING 235
SWIDTH 560 0
DWIDTH 6 0
BBX 5 8 1 0
BITMAP
68
58
38
48
F0
C0
C8
70
ENDCHAR

STARTCHAR igrave
ENCODING 236
SWIDTH 380 0
DWIDTH 4 0
BBX 3 8 1 0
BITMAP
40
20
E0
C0
C0
C0
C0
60
ENDCHAR

STARTCHAR iacute
ENCODING 237
SWIDTH 380 0
DWIDTH 4 0
BBX 3 8 1 0
BITMAP
20
60
E0
C0
C0
C0
C0
60
ENDCHAR

STARTCHAR icircumflex
ENCODING 238
SWIDTH 380 0
DWIDTH 4 0
BBX 3 8 1 0
BITMAP
40
A0
E0
C0
C0
C0
C0
60
ENDCHAR

STARTCHAR idieresis
ENCODING 239
SWIDTH 380 0
DWIDTH 4 0
BBX 4 8 1 0
BITMAP
D0
B0
E0
C0
C0
C0
C0
60
ENDCHAR

STARTCHAR eth
ENCODING 240
SWIDTH 600 0
DWIDTH 6 0
BBX 6 9 1 0
BITMAP
10
70
48
3C
4C
CC
CC
D8
70
ENDCHAR

STARTCHAR ntilde
ENCODING 241
SWIDTH 680 0
DWIDTH 7 0
BBX 6 7 1 0
BITMAP
3C
F8
4C
4C
CC
CC
CC
ENDCHAR

STARTCHAR ograve
ENCODING 242
SWIDTH 600 0
DWIDTH 6 0
BBX 6 8 1 0
BITMAP
20
10
38
4C
CC
CC
D8
70
ENDCHAR

STARTCHAR oacute
ENCODING 243
SWIDTH 600 0
DWIDTH 6 0
BBX 6 8 1 0
BITMAP
10
30
38
4C
CC
CC
D8
70
ENDCHAR

STARTCHAR ocircumflex
ENCODING 244
SWIDTH 600 0
DWIDTH 6 0
BBX 6 8 1 0
BITMAP
10
28
38
4C
CC
CC
D8
70
ENDCHAR

STARTCHAR otilde
ENCODING 245
SWIDTH 600 0
DWIDTH 6 0
BBX 6 7 1 0
BITMAP
3C
38
4C
CC
CC
D8
70
ENDCHAR

STARTCHAR odieresis
ENCODING 246
SWIDTH 600 0
DWIDTH 6 0
BBX 6 8 1 0
BITMAP
34
2C
38
4C
CC
CC
D8
70
ENDCHAR

STARTCHAR divide
ENCODING 247
SWIDTH 600 0
DWIDTH 6 0
BBX 6 5 0 1
BITMAP
30
30
FC
30
30
ENDCHAR

STARTCHAR oslash
ENCODING 248
SWIDTH 600 0
DWIDTH 6 0
BBX 7 6 1 0
BITMAP
3E
4C
DC
EC
D8
F0
ENDCHAR

STARTCHAR ugrave
ENCODING 249
SWIDTH 680 0
DWIDTH 7 0
BBX 6 8 1 0
BITMAP
10
08
EC
4C
CC
CC
CC
7C
ENDCHAR

STARTCHAR uacute
ENCODING 250
SWIDTH 680 0
DWIDTH 7 0
BBX 6 8 1 0
BITMAP
08
10
EC
4C
CC
CC
CC
7C
ENDCHAR

STARTCHAR ucircumflex
ENCODING 251
SWIDTH 680 0
DWIDTH 7 0
BBX 6 8 1 0
BITMAP
10
28
EC
4C
CC
CC
CC
7C
ENDCHAR

STARTCHAR udieresis
ENCODING 252
SWIDTH 680 0
DWIDTH 7 0
BBX 6 8 1 0
BITMAP
6C
00
EC
4C
CC
CC
CC
7C
ENDCHAR

STARTCHAR yacute
ENCODING 253
SWIDTH 600 0
DWIDTH 6 0
BBX 6 10 0 -2
BITMAP
08
18
EC
6C
6C
4C
48
78
98
F0
ENDCHAR

STARTCHAR thorn
ENCODING 254
SWIDTH 660 0
DWIDTH 7 0
BBX 7 10 0 -2
BITMAP
30
30
3C
36
36
26
64
7C
60
F0
ENDCHAR

STARTCHAR ydieresis
ENCODING 255
SWIDTH 600 0
DWIDTH 6 0
BBX 6 10 0 -2
BITMAP
34
2C
EC
6C
6C
4C
48
78
98
F0
ENDCHAR
ENDFONT
